<?xml version="1.0" encoding="UTF-8"?>
 <!DOCTYPE svg PUBLIC "-//W3C//DTD SVG 1.1//EN"
   "http://www.w3.org/Graphics/SVG/1.1/DTD/svg11.dtd">
 <svg xmlns="http://www.w3.org/2000/svg" version="1.1"
   xmlns:xlink="http://www.w3.org/1999/xlink" width="400" height="400">
  <defs>
    <linearGradient id="linearGradient3134">
      <stop stop-color="#ffa1a1" offset="0" />
      <stop stop-color="#b41e1e" offset="1" />
    </linearGradient>
    <linearGradient x1="29.753853" y1="-13.269632" x2="202.58235" y2="183.58783" id="linearGradient3140" xlink:href="#linearGradient3134" gradientUnits="userSpaceOnUse" gradientTransform="matrix(1.2084389,0,0,1.2084418,89.669909,106.93817)" />
    <linearGradient x1="29.753853" y1="-13.269632" x2="202.58235" y2="183.58783" id="linearGradient3148" xlink:href="#linearGradient3134" gradientUnits="userSpaceOnUse" gradientTransform="matrix(1.2084389,0,0,1.2084418,89.669909,106.93817)" />
    <filter id="filter19487" color-interpolation-filters="sRGB">
      <feGaussianBlur id="feGaussianBlur19489" stdDeviation="2.7084865" />
    </filter>
    <filter id="filter3172" color-interpolation-filters="sRGB">
      <feGaussianBlur id="feGaussianBlur3174" stdDeviation="5.0924795" />
    </filter>
    <linearGradient x1="29.753853" y1="-13.269632" x2="202.58235" y2="183.58783" id="linearGradient2184" xlink:href="#linearGradient3134" gradientUnits="userSpaceOnUse" gradientTransform="matrix(1.20844,0,0,1.20844,89.6696,106.939)" />
    <linearGradient x1="29.753853" y1="-13.269632" x2="202.58235" y2="183.58783" id="linearGradient36" xlink:href="#linearGradient3134" gradientUnits="userSpaceOnUse" gradientTransform="matrix(1.20844,0,0,1.20844,89.6696,106.939)" />
  </defs>
  <path d="M 209.96952,45.922969 C 205.75508,46.140459 201.93482,48.469539 199.81105,52.116229 L 30.85568,343.65299 C 28.61628,347.5179 28.6092,352.28401 30.83709,356.15557 33.06499,360.02713 37.18932,362.4158 41.65613,362.42161 L 378.58501,362.9503 C 383.05364,362.96371 387.18959,360.59087 389.43346,356.72643 391.67733,352.862 391.68782,348.09372 389.46099,344.21944 L 221.44972,52.153999 C 219.09867,48.083949 214.66335,45.676619 209.96952,45.922969 L 209.96952,45.922969 z M 210.57374,83.384679 356.9841,337.91288 63.33257,337.45972 210.57374,83.384679 z" fill="#777777" fill-opacity="0.797" filter="url(#filter3172)" />
  <path d="M 199.82666,41.494396 C 195.61222,41.711894 191.79197,44.040971 189.66819,47.687664 L 20.712823,339.22442 C 18.473424,343.08933 18.466339,347.85544 20.694238,351.727 22.922136,355.59856 27.04646,357.98723 31.513278,357.99304 L 368.44215,358.52173 C 372.91078,358.53514 377.04674,356.1623 379.2906,352.29786 381.53447,348.43343 381.54497,343.66515 379.31813,339.79087 L 211.30686,47.725427 C 208.95581,43.655381 204.52049,41.248051 199.82666,41.494396 L 199.82666,41.494396 z M 200.43088,78.956113 346.84124,333.48431 53.189715,333.03115 200.43088,78.956113 z" style="fill:url(#linearGradient36);stroke:#000000;stroke-width:6.25" />
  <path d="M 368.47401,346.03701 31.525986,345.49748 200.46724,53.960991 368.47401,346.03701 z" fill="url(#linearGradient3140)" stroke="url(#linearGradient3148)" stroke-width="25" stroke-linejoin="round" />
  <path d="M 190.27398,60.614305 31.220698,335.06477 C 26.929013,343.52397 32.422449,351.77002 41.388163,352.7334 L 358.57042,353.23111 C 368.04725,352.73137 372.45355,343.85033 368.80898,335.59802 L 210.64446,60.649855 C 205.25174,52.500429 195.9148,53.691762 190.27398,60.614305 z" opacity="0.66" fill="#c91010" filter="url(#filter19487)" />
  <path d="M 199.89718,120.30988 C 197.35292,120.44119 195.04663,121.84725 193.7645,124.04876 L 91.76607,300.04964 C 90.414144,302.38288 90.409866,305.26019 91.75485,307.59745 93.099833,309.93471 95.58969,311.37675 98.28631,311.38026 L 301.69043,311.69943 C 304.38814,311.70752 306.88502,310.27504 308.23964,307.94207 309.59426,305.60912 309.6006,302.73051 308.25626,300.3916 L 206.82778,124.07156 C 205.40845,121.61447 202.73084,120.16116 199.89718,120.30988 L 199.89718,120.30988 z" fill="#ffffff" />
  <path d="M 202.36386,249.66668 197.64532,249.66668 C 197.15716,241.42286 195.53008,231.5519 192.76407,220.05379 L 187.15064,196.62381 C 183.78798,182.57678 182.10667,172.516 182.10669,166.44143 182.10667,154.18422 188.04551,148.05556 199.92324,148.05541 205.12986,148.05556 209.42806,149.75043 212.81786,153.14004 216.20756,156.52993 217.90244,160.85525 217.90249,166.11602 217.90244,171.70246 216.11265,181.87171 212.53312,196.62381 L 206.83833,220.05379 C 204.83156,228.29774 203.34007,238.16869 202.36386,249.66668 L 202.36386,249.66668 z M 200.1673,265.04261 C 210.35159,265.11142 216.86883,272.79059 217.57708,282.53374 217.53186,292.7359 209.9356,299.23944 200.1673,299.94352 189.96514,299.89839 183.46156,292.30203 182.75752,282.53374 182.93986,272.31581 190.33878,265.73473 200.1673,265.04261 L 200.1673,265.04261 z" />
 </svg>